<?xml version="1.0" encoding="UTF-8"?>
<svg id="Layer_1" data-name="Layer 1" xmlns="http://www.w3.org/2000/svg" xmlns:xlink="http://www.w3.org/1999/xlink" viewBox="0 0 166.73 30.75">
  <defs>
    <style>
      .cls-1 {
        fill: none;
        stroke: #fff;
        stroke-miterlimit: 10;
      }

      .cls-2 {
        fill: url(#linear-gradient-2);
      }

      .cls-2, .cls-3, .cls-4 {
        fill-rule: evenodd;
      }

      .cls-3 {
        fill: url(#linear-gradient);
      }

      .cls-4 {
        fill: url(#linear-gradient-3);
      }
    </style>
    <linearGradient id="linear-gradient" x1="0" y1="14.51" x2="40.33" y2="14.51" gradientTransform="translate(0 34.68) scale(1 -1)" gradientUnits="userSpaceOnUse">
      <stop offset="0" stop-color="#2af598"/>
      <stop offset="1" stop-color="#009efd"/>
    </linearGradient>
    <linearGradient id="linear-gradient-2" x1="0" y1="14.51" x2="40.33" y2="14.51" gradientTransform="translate(0 34.68) scale(1 -1)" gradientUnits="userSpaceOnUse">
      <stop offset="0" stop-color="#2af598"/>
      <stop offset="1" stop-color="#009efd"/>
    </linearGradient>
    <linearGradient id="linear-gradient-3" x1="13.41" y1="26.49" x2="26.92" y2="26.49" gradientTransform="translate(0 34.68) scale(1 -1)" gradientUnits="userSpaceOnUse">
      <stop offset="0" stop-color="#2af598"/>
      <stop offset="1" stop-color="#009efd"/>
    </linearGradient>
  </defs>
  <g>
    <path class="cls-3" d="m1,9.58c.55,0,1,.45,1,1,0,4.82,1.91,9.44,5.32,12.85,3.41,3.41,8.03,5.32,12.85,5.32s9.44-1.91,12.85-5.32c3.41-3.41,5.32-8.03,5.32-12.85,0-.55.45-1,1-1s1,.45,1,1c0,5.35-2.12,10.48-5.91,14.26-3.78,3.78-8.91,5.91-14.26,5.91s-10.48-2.12-14.26-5.91C2.12,21.06,0,15.93,0,10.58c0-.55.45-1,1-1Z"/>
    <path class="cls-2" d="m0,10.58c0-.55.45-1,1-1,2.65,0,5.27.52,7.72,1.54,2.45,1.01,4.67,2.5,6.54,4.37,1.87,1.87,3.36,4.1,4.37,6.54.2.48.38.96.54,1.45.98-2.98,2.65-5.73,4.91-7.99,3.78-3.78,8.91-5.91,14.26-5.91.55,0,1,.45,1,1s-.45,1-1,1c-4.82,0-9.44,1.91-12.85,5.32-3.41,3.41-5.32,8.03-5.32,12.85,0,.55-.45,1-1,1s-1-.45-1-1c0-2.39-.47-4.75-1.38-6.95-.91-2.2-2.25-4.21-3.94-5.89-1.69-1.69-3.69-3.03-5.89-3.94-2.2-.91-4.57-1.38-6.95-1.38-.55,0-1-.45-1-1Z"/>
    <path class="cls-4" d="m20.86.28c-.08-.08-.17-.14-.26-.18C20.46.03,20.31,0,20.17,0c-.25,0-.5.09-.69.28-2.03,1.94-3.63,4.3-4.67,6.91-1.04,2.61-1.51,5.42-1.37,8.23.03.55.5.98,1.05.95s.98-.5.95-1.05c-.13-2.52.29-5.04,1.23-7.39.81-2.04,2-3.91,3.5-5.51,1.5,1.6,2.69,3.47,3.5,5.51.94,2.35,1.35,4.87,1.23,7.39-.03.55.4,1.02.95,1.05s1.02-.4,1.05-.95c.14-2.81-.33-5.62-1.37-8.23-1.04-2.61-2.63-4.97-4.67-6.91Z"/>
  </g>
  <g>
    <path class="cls-1" d="m72.55,5.85v21.88h-5.33v-9.01h-8.29v9.01h-5.33V5.85h5.33v8.57h8.29V5.85h5.33Z"/>
    <path class="cls-1" d="m76.34,14.3c.67-1.35,1.59-2.39,2.76-3.12,1.16-.73,2.46-1.09,3.9-1.09,1.23,0,2.3.25,3.23.75.92.5,1.63,1.15,2.13,1.96v-2.46h5.33v17.39h-5.33v-2.46c-.52.81-1.24,1.46-2.17,1.96-.93.5-2,.75-3.23.75-1.41,0-2.7-.37-3.86-1.11-1.16-.74-2.08-1.79-2.76-3.15-.68-1.36-1.01-2.93-1.01-4.72s.34-3.36,1.01-4.71Zm10.91,1.59c-.74-.77-1.63-1.15-2.7-1.15s-1.96.38-2.7,1.14c-.74.76-1.11,1.8-1.11,3.13s.37,2.38,1.11,3.16c.74.78,1.63,1.17,2.7,1.17s1.96-.38,2.7-1.15c.74-.77,1.11-1.82,1.11-3.15s-.37-2.38-1.11-3.15Z"/>
    <path class="cls-1" d="m102.87,4.67v23.06h-5.33V4.67h5.33Z"/>
    <path class="cls-1" d="m107.13,7.71c-.59-.55-.89-1.23-.89-2.04s.3-1.52.89-2.07c.59-.55,1.36-.83,2.29-.83s1.67.28,2.26.83c.59.55.89,1.24.89,2.07s-.3,1.49-.89,2.04c-.59.55-1.35.83-2.26.83s-1.7-.28-2.29-.83Zm4.94,2.63v17.39h-5.33V10.34h5.33Z"/>
    <path class="cls-1" d="m143.28,12.12c1.28,1.31,1.92,3.13,1.92,5.45v10.16h-5.3v-9.44c0-1.12-.3-1.99-.89-2.6-.59-.61-1.41-.92-2.45-.92s-1.85.31-2.45.92-.89,1.48-.89,2.6v9.44h-5.3v-9.44c0-1.12-.3-1.99-.89-2.6-.59-.61-1.41-.92-2.45-.92s-1.85.31-2.45.92c-.59.61-.89,1.48-.89,2.6v9.44h-5.33V10.34h5.33v2.18c.54-.73,1.25-1.3,2.12-1.73.87-.43,1.86-.64,2.96-.64,1.31,0,2.48.28,3.51.84s1.83,1.36,2.42,2.4c.6-.96,1.42-1.73,2.46-2.34,1.04-.6,2.17-.9,3.4-.9,2.16,0,3.88.65,5.16,1.96Z"/>
    <path class="cls-1" d="m148.89,14.3c.67-1.35,1.59-2.39,2.76-3.12,1.16-.73,2.46-1.09,3.9-1.09,1.23,0,2.3.25,3.23.75.92.5,1.64,1.15,2.13,1.96v-2.46h5.33v17.39h-5.33v-2.46c-.52.81-1.24,1.46-2.17,1.96-.92.5-2,.75-3.23.75-1.41,0-2.7-.37-3.87-1.11-1.16-.74-2.08-1.79-2.76-3.15-.68-1.36-1.01-2.93-1.01-4.72s.34-3.36,1.01-4.71Zm10.91,1.59c-.74-.77-1.64-1.15-2.7-1.15s-1.96.38-2.7,1.14c-.74.76-1.11,1.8-1.11,3.13s.37,2.38,1.11,3.16c.74.78,1.64,1.17,2.7,1.17s1.96-.38,2.7-1.15c.74-.77,1.11-1.82,1.11-3.15s-.37-2.38-1.11-3.15Z"/>
  </g>
</svg>